<svg width="332" height="88" viewBox="0 0 332 88" fill="none" xmlns="http://www.w3.org/2000/svg">
<rect width="331.292" height="87.3085" rx="8" fill="#6BEFA3"/>
<path fill-rule="evenodd" clip-rule="evenodd" d="M51.8679 71.3085C54.1375 71.304 56.3129 70.4396 57.9177 68.9045C59.5226 67.3694 60.4263 65.2886 60.4309 63.1177V63.1177V44.8216H40.46C39.2045 44.8361 37.9676 45.1146 36.8371 45.6373C35.7066 46.16 34.7101 46.914 33.9182 47.8461C33.1262 48.7781 32.5582 49.8653 32.2544 51.0307C31.9506 52.1961 31.9185 53.4111 32.1602 54.5897C32.4019 55.7683 32.9117 56.8816 33.6533 57.8508C34.3949 58.82 35.3502 59.6213 36.4516 60.1981C37.553 60.7748 38.7735 61.1128 40.0267 61.1882C41.2799 61.2635 42.535 61.0744 43.7033 60.6341C43.2935 61.8622 43.1927 63.1655 43.4092 64.4379C43.6257 65.7103 44.1534 66.9158 44.9492 67.9563C45.745 68.9967 46.7864 69.8426 47.9887 70.4251C49.191 71.0077 50.5201 71.3103 51.8679 71.3085V71.3085ZM71.4255 16C69.156 16.0047 66.9809 16.8692 65.3762 18.4043C63.7716 19.9393 62.868 22.02 62.8634 24.1908V24.1908V42.4851H82.8315C84.0865 42.4699 85.3226 42.1909 86.4523 41.668C87.5821 41.145 88.5779 40.391 89.3692 39.4591C90.1605 38.5273 90.728 37.4404 91.0314 36.2755C91.3349 35.1106 91.367 33.8962 91.1254 32.7181C90.8837 31.5401 90.3743 30.4272 89.6332 29.4584C88.8921 28.4895 87.9374 27.6883 86.8366 27.1115C85.7359 26.5347 84.5161 26.1964 83.2635 26.1206C82.0109 26.0447 80.7562 26.2332 79.5882 26.6726C79.9976 25.4447 80.0981 24.1418 79.8816 22.8697C79.665 21.5977 79.1374 20.3926 78.3419 19.3524C77.5464 18.3122 76.5053 17.4665 75.3034 16.8839C74.1015 16.3014 72.7729 15.9985 71.4255 16" fill="white"/>
<path fill-rule="evenodd" clip-rule="evenodd" d="M51.8687 16C54.1384 16.0045 56.3137 16.8688 57.9186 18.404C59.5235 19.9391 60.4271 22.0198 60.4318 24.1908V42.486H40.4609C39.2059 42.4707 37.9698 42.1918 36.84 41.6689C35.7103 41.1459 34.7145 40.3919 33.9232 39.46C33.1319 38.5282 32.5644 37.4413 32.2609 36.2764C31.9575 35.1115 31.9254 33.8971 32.167 32.719C32.4086 31.541 32.9181 30.4281 33.6592 29.4592C34.4003 28.4904 35.355 27.6892 36.4557 27.1124C37.5565 26.5356 38.7763 26.1973 40.0289 26.1215C41.2815 26.0456 42.5361 26.2341 43.7041 26.6735C43.2945 25.4454 43.1939 24.1422 43.4105 22.8699C43.6271 21.5976 44.1548 20.3923 44.9505 19.3519C45.7463 18.3116 46.7877 17.4658 47.9899 16.8833C49.1921 16.3009 50.5211 15.9982 51.8687 16V16ZM71.4264 71.3085C69.1567 71.304 66.9813 70.4395 65.3765 68.9042C63.7717 67.3688 62.8684 65.2878 62.8642 63.1168V63.1168V44.8216H82.8324C84.0879 44.8361 85.3247 45.1146 86.4552 45.6373C87.5858 46.16 88.5823 46.914 89.3742 47.8461C90.1662 48.7781 90.7342 49.8653 91.0379 51.0307C91.3417 52.1961 91.3739 53.4111 91.1322 54.5897C90.8904 55.7683 90.3807 56.8816 89.6391 57.8508C88.8975 58.82 87.9422 59.6213 86.8408 60.1981C85.7394 60.7748 84.5189 61.1128 83.2657 61.1882C82.0125 61.2635 80.7574 61.0744 79.5891 60.6341C79.9989 61.8621 80.0996 63.1652 79.8832 64.4375C79.6668 65.7098 79.1394 66.9152 78.3438 67.9555C77.5482 68.9959 76.507 69.8419 75.3049 70.4245C74.1029 71.0072 72.7739 71.31 71.4264 71.3085" fill="white"/>
<path d="M128.892 54.1543L128.862 41.5543L122.682 51.9343H120.492L114.342 41.8243V54.1543H109.782V33.1543H113.802L121.662 46.2043L129.402 33.1543H133.392L133.452 54.1543H128.892ZM154.694 50.2543V54.1543H138.434V33.1543H154.304V37.0543H143.264V41.6143H153.014V45.3943H143.264V50.2543H154.694ZM172.693 43.3243H177.133V51.8443C175.993 52.7043 174.673 53.3643 173.173 53.8243C171.673 54.2843 170.163 54.5143 168.643 54.5143C166.463 54.5143 164.503 54.0543 162.763 53.1343C161.023 52.1943 159.653 50.9043 158.653 49.2643C157.673 47.6043 157.183 45.7343 157.183 43.6543C157.183 41.5743 157.673 39.7143 158.653 38.0743C159.653 36.4143 161.033 35.1243 162.793 34.2043C164.553 33.2643 166.533 32.7943 168.733 32.7943C170.573 32.7943 172.243 33.1043 173.743 33.7243C175.243 34.3443 176.503 35.2443 177.523 36.4243L174.403 39.3043C172.903 37.7243 171.093 36.9343 168.973 36.9343C167.633 36.9343 166.443 37.2143 165.403 37.7743C164.363 38.3343 163.553 39.1243 162.973 40.1443C162.393 41.1643 162.103 42.3343 162.103 43.6543C162.103 44.9543 162.393 46.1143 162.973 47.1343C163.553 48.1543 164.353 48.9543 165.373 49.5343C166.413 50.0943 167.593 50.3743 168.913 50.3743C170.313 50.3743 171.573 50.0743 172.693 49.4743V43.3243ZM195.477 49.6543H185.727L183.867 54.1543H178.887L188.247 33.1543H193.047L202.437 54.1543H197.337L195.477 49.6543ZM193.947 45.9643L190.617 37.9243L187.287 45.9643H193.947ZM202.983 43.8343H211.473V47.5843H202.983V43.8343ZM221.975 54.5143C220.315 54.5143 218.705 54.2943 217.145 53.8543C215.605 53.3943 214.365 52.8043 213.425 52.0843L215.075 48.4243C215.975 49.0843 217.045 49.6143 218.285 50.0143C219.525 50.4143 220.765 50.6143 222.005 50.6143C223.385 50.6143 224.405 50.4143 225.065 50.0143C225.725 49.5943 226.055 49.0443 226.055 48.3643C226.055 47.8643 225.855 47.4543 225.455 47.1343C225.075 46.7943 224.575 46.5243 223.955 46.3243C223.355 46.1243 222.535 45.9043 221.495 45.6643C219.895 45.2843 218.585 44.9043 217.565 44.5243C216.545 44.1443 215.665 43.5343 214.925 42.6943C214.205 41.8543 213.845 40.7343 213.845 39.3343C213.845 38.1143 214.175 37.0143 214.835 36.0343C215.495 35.0343 216.485 34.2443 217.805 33.6643C219.145 33.0843 220.775 32.7943 222.695 32.7943C224.035 32.7943 225.345 32.9543 226.625 33.2743C227.905 33.5943 229.025 34.0543 229.985 34.6543L228.485 38.3443C226.545 37.2443 224.605 36.6943 222.665 36.6943C221.305 36.6943 220.295 36.9143 219.635 37.3543C218.995 37.7943 218.675 38.3743 218.675 39.0943C218.675 39.8143 219.045 40.3543 219.785 40.7143C220.545 41.0543 221.695 41.3943 223.235 41.7343C224.835 42.1143 226.145 42.4943 227.165 42.8743C228.185 43.2543 229.055 43.8543 229.775 44.6743C230.515 45.4943 230.885 46.6043 230.885 48.0043C230.885 49.2043 230.545 50.3043 229.865 51.3043C229.205 52.2843 228.205 53.0643 226.865 53.6443C225.525 54.2243 223.895 54.5143 221.975 54.5143ZM250.466 50.2543V54.1543H234.206V33.1543H250.076V37.0543H239.036V41.6143H248.786V45.3943H239.036V50.2543H250.466ZM273.593 33.1543V54.1543H269.603L259.133 41.4043V54.1543H254.333V33.1543H258.353L268.793 45.9043V33.1543H273.593ZM292.391 49.6543H282.641L280.781 54.1543H275.801L285.161 33.1543H289.961L299.351 54.1543H294.251L292.391 49.6543ZM290.861 45.9643L287.531 37.9243L284.201 45.9643H290.861Z" fill="white"/>
</svg>
